<svg xmlns="http://www.w3.org/2000/svg" viewBox="0 0 24 24" fill="none" stroke="url(#menteGradient)" stroke-width="2" stroke-linecap="round" stroke-linejoin="round">
  <defs>
    <linearGradient id="menteGradient" x1="0%" y1="0%" x2="100%" y2="100%">
      <stop offset="0%" stop-color="#2dd4bf" />
      <stop offset="100%" stop-color="#06b6d4" />
    </linearGradient>
  </defs>
  <path d="M12 4.5a2.5 2.5 0 0 0-4.96.44 2.5 2.5 0 0 0-2.98 3.08 3 3 0 0 0-.34 5.58 2.5 2.5 0 0 0 1.32 4.24 2.5 2.5 0 0 0 4.44-2.1 2.5 2.5 0 0 0 .52-.24" />
  <path d="M12 4.5a2.5 2.5 0 0 1 4.96.44 2.5 2.5 0 0 1 2.98 3.08 3 3 0 0 1 .34 5.58 2.5 2.5 0 0 1-1.32 4.24 2.5 2.5 0 0 1-4.44-2.1 2.5 2.5 0 0 1-.52-.24" />
  <path d="M12 13a2.5 2.5 0 0 0-2.5 2.5" />
  <path d="M12 13a2.5 2.5 0 0 1 2.5 2.5" />
</svg>
